<svg xmlns="http://www.w3.org/2000/svg" xmlns:xlink="http://www.w3.org/1999/xlink" width="500" zoomAndPan="magnify" viewBox="0 0 375 374.999991" height="500" preserveAspectRatio="xMidYMid meet" version="1.0"><defs><clipPath id="a536c81ec8"><path d="M 37.5 4.003906 L 332.832031 4.003906 L 332.832031 365.257812 L 37.5 365.257812 Z M 37.5 4.003906 " clip-rule="nonzero"/></clipPath></defs><g clip-path="url(#a536c81ec8)"><path fill="#ffffff" d="M 322.609375 206.699219 C 322.609375 148.945312 283.382812 101.964844 235.160156 101.964844 C 220.421875 101.964844 206.042969 106.390625 193.226562 114.800781 C 194.617188 116.25 195.960938 117.746094 197.277344 119.253906 C 210.621094 134.566406 220.539062 152.980469 225.5625 172.691406 C 233.613281 204.195312 228.179688 236.441406 215.296875 265.878906 C 212.664062 271.910156 203.847656 266.683594 206.464844 260.703125 C 214.109375 243.230469 219.03125 224.453125 219.234375 205.296875 C 219.566406 174.8125 207.144531 141.019531 184.046875 120.054688 C 183.472656 119.539062 179.867188 116.699219 179.472656 116.414062 C 166.066406 106.957031 150.828125 101.964844 135.175781 101.964844 C 86.957031 101.964844 47.726562 148.945312 47.726562 206.699219 C 47.726562 265.671875 114.699219 351.445312 180.636719 355.089844 C 182.042969 355.167969 189.378906 355.128906 191.359375 354.988281 C 222.148438 352.675781 255.277344 332.695312 282.257812 300.195312 C 307.15625 270.222656 322.609375 234.386719 322.609375 206.703125 Z M 147.8125 92.703125 C 159.601562 94.496094 170.980469 98.796875 181.433594 105.425781 C 182.214844 97.726562 182.480469 85.320312 178.800781 72.058594 C 171.246094 44.8125 151.035156 26.167969 118.699219 16.597656 C 116.441406 30.234375 113.84375 68.074219 147.8125 92.703125 Z M 332.832031 206.699219 C 332.832031 236.671875 316.472656 274.992188 290.132812 306.726562 C 261.398438 341.351562 225.664062 362.65625 192.125 365.175781 C 190.554688 365.300781 186.808594 365.351562 183.832031 365.351562 C 182.15625 365.351562 180.710938 365.339844 180.074219 365.300781 C 146.222656 363.421875 110.058594 342.359375 80.847656 307.503906 C 54.109375 275.589844 37.5 236.96875 37.5 206.703125 C 37.5 144.890625 79.152344 94.335938 131.15625 91.847656 C 118.164062 78.695312 110.226562 61.859375 108.019531 42.375 C 105.917969 23.8125 109.699219 9.488281 109.863281 8.886719 L 111.175781 4.011719 L 116.070312 5.269531 C 165.070312 17.839844 182.65625 47.277344 188.777344 69.753906 C 190.734375 76.957031 191.664062 83.871094 191.996094 90.0625 C 214.171875 52.316406 248.707031 17.03125 294.398438 14.5625 C 300.996094 14.199219 300.945312 24.441406 294.398438 24.796875 C 279.828125 25.585938 266.027344 30.324219 253.617188 37.910156 C 234.046875 49.875 218.480469 67.796875 206.058594 86.863281 C 203.179688 91.28125 200.472656 95.804688 197.902344 100.414062 C 209.636719 94.710938 222.261719 91.742188 235.160156 91.742188 C 289.019531 91.742188 332.832031 143.308594 332.832031 206.703125 Z M 296.242188 208.363281 C 296.214844 204.464844 295.972656 200.589844 295.5 196.71875 C 295.179688 193.984375 293.390625 191.605469 290.386719 191.605469 C 287.882812 191.605469 284.929688 193.957031 285.273438 196.71875 C 285.734375 200.589844 285.976562 204.464844 286.003906 208.363281 C 286.027344 214.945312 296.265625 214.957031 296.242188 208.363281 Z M 287.84375 169.1875 C 290.605469 175.132812 281.773438 180.332031 279 174.363281 C 269.042969 152.945312 250.164062 136.1875 225.664062 135.804688 C 219.066406 135.703125 219.066406 125.460938 225.664062 125.558594 C 253.601562 126.003906 276.367188 144.496094 287.84375 169.1875 " fill-opacity="1" fill-rule="nonzero"/></g></svg>