<svg xmlns="http://www.w3.org/2000/svg" xmlns:xlink="http://www.w3.org/1999/xlink" width="500" zoomAndPan="magnify" viewBox="0 0 375 374.999991" height="500" preserveAspectRatio="xMidYMid meet" version="1.0"><defs><g/><clipPath id="8618c14d0f"><path d="M 92.164062 207.429688 L 101.671875 207.429688 L 101.671875 216.9375 L 92.164062 216.9375 Z M 92.164062 207.429688 " clip-rule="nonzero"/></clipPath><clipPath id="de8be46381"><path d="M 96.917969 207.429688 C 94.292969 207.429688 92.164062 209.558594 92.164062 212.183594 C 92.164062 214.808594 94.292969 216.9375 96.917969 216.9375 C 99.542969 216.9375 101.671875 214.808594 101.671875 212.183594 C 101.671875 209.558594 99.542969 207.429688 96.917969 207.429688 Z M 96.917969 207.429688 " clip-rule="nonzero"/></clipPath><clipPath id="97bd966629"><path d="M 273.921875 207.429688 L 283.425781 207.429688 L 283.425781 216.9375 L 273.921875 216.9375 Z M 273.921875 207.429688 " clip-rule="nonzero"/></clipPath><clipPath id="d4f47521da"><path d="M 278.675781 207.429688 C 276.046875 207.429688 273.921875 209.558594 273.921875 212.183594 C 273.921875 214.808594 276.046875 216.9375 278.675781 216.9375 C 281.300781 216.9375 283.425781 214.808594 283.425781 212.183594 C 283.425781 209.558594 281.300781 207.429688 278.675781 207.429688 Z M 278.675781 207.429688 " clip-rule="nonzero"/></clipPath><clipPath id="24beb3bd18"><path d="M 147.933594 137.0625 L 227.519531 137.0625 L 227.519531 234.339844 L 147.933594 234.339844 Z M 147.933594 137.0625 " clip-rule="nonzero"/></clipPath></defs><g fill="#d9d9d9" fill-opacity="1"><g transform="translate(100.535266, 186.993288)"><g><path d="M -25.3125 -16.09375 C -26.082031 -16.726562 -26.328125 -17.800781 -26.046875 -19.3125 C -25.765625 -20.820312 -25.085938 -23.019531 -24.015625 -25.90625 C -22.941406 -28.789062 -21.882812 -30.910156 -20.84375 -32.265625 C -19.8125 -33.617188 -18.863281 -34.132812 -18 -33.8125 C -17.59375 -33.65625 -17.359375 -33.390625 -17.296875 -33.015625 C -17.242188 -32.648438 -17.207031 -32.332031 -17.1875 -32.0625 C -17.175781 -31.800781 -17.203125 -31.460938 -17.265625 -31.046875 C -17.335938 -30.640625 -17.398438 -30.257812 -17.453125 -29.90625 C -17.503906 -29.5625 -17.597656 -29.117188 -17.734375 -28.578125 C -17.878906 -28.035156 -18 -27.566406 -18.09375 -27.171875 C -18.195312 -26.785156 -18.328125 -26.265625 -18.484375 -25.609375 C -18.648438 -24.960938 -18.800781 -24.375 -18.9375 -23.84375 C -19.082031 -23.320312 -19.378906 -21.910156 -19.828125 -19.609375 L -19.796875 -19.59375 C -18.828125 -19.238281 -16.421875 -17.867188 -12.578125 -15.484375 C -12.421875 -15.816406 -12.164062 -16.445312 -11.8125 -17.375 C -11.46875 -18.300781 -11.085938 -19.546875 -10.671875 -21.109375 C -10.265625 -22.671875 -9.972656 -23.6875 -9.796875 -24.15625 C -9.628906 -24.625 -9.363281 -24.972656 -9 -25.203125 C -8.644531 -25.441406 -8.316406 -25.503906 -8.015625 -25.390625 C -7.296875 -25.117188 -6.8125 -24.445312 -6.5625 -23.375 C -6.320312 -22.3125 -6.28125 -21.070312 -6.4375 -19.65625 C -6.75 -16.84375 -7.242188 -14.445312 -7.921875 -12.46875 C -4.816406 -10.394531 -2.910156 -9.128906 -2.203125 -8.671875 C -1.503906 -8.222656 -0.84375 -7.769531 -0.21875 -7.3125 C 1.019531 -6.46875 1.582031 -5.894531 1.46875 -5.59375 C 1.257812 -5.039062 0.347656 -4.507812 -1.265625 -4 C -2.890625 -3.5 -4.007812 -3.363281 -4.625 -3.59375 C -5.695312 -4 -8.859375 -5.929688 -14.109375 -9.390625 C -19.359375 -12.859375 -22.703125 -14.898438 -24.140625 -15.515625 L -24.46875 -15.640625 C -24.820312 -15.773438 -25.101562 -15.925781 -25.3125 -16.09375 Z M -25.3125 -16.09375 "/></g></g></g><g fill="#d9d9d9" fill-opacity="1"><g transform="translate(108.204419, 167.148258)"><g><path d="M 2.5625 -5.359375 C 2.257812 -4.867188 1.347656 -4.515625 -0.171875 -4.296875 C -1.691406 -4.078125 -2.679688 -4.101562 -3.140625 -4.375 C -3.609375 -4.65625 -6.664062 -7.3125 -12.3125 -12.34375 C -17.957031 -17.375 -21.488281 -20.347656 -22.90625 -21.265625 C -23.695312 -21.796875 -23.878906 -22.414062 -23.453125 -23.125 C -23.097656 -23.71875 -22.035156 -24.15625 -20.265625 -24.4375 C -18.503906 -24.71875 -17.109375 -24.550781 -16.078125 -23.9375 C -15.628906 -23.664062 -14.160156 -22.328125 -11.671875 -19.921875 C -9.191406 -17.515625 -7.445312 -15.851562 -6.4375 -14.9375 C -5.4375 -14.019531 -4.539062 -13.207031 -3.75 -12.5 C -2.96875 -11.789062 -2.34375 -11.234375 -1.875 -10.828125 C 0.851562 -8.253906 2.332031 -6.632812 2.5625 -5.96875 C 2.644531 -5.71875 2.644531 -5.515625 2.5625 -5.359375 Z M 2.5625 -5.359375 "/></g></g></g><g fill="#d9d9d9" fill-opacity="1"><g transform="translate(113.477318, 157.081484)"><g><path d="M -12.46875 -25.046875 C -14.382812 -22.597656 -15.4375 -21.265625 -15.625 -21.046875 C -16.082031 -20.523438 -16.851562 -20.285156 -17.9375 -20.328125 C -19.019531 -20.367188 -19.90625 -20.695312 -20.59375 -21.3125 C -21.65625 -22.238281 -19.488281 -25.765625 -14.09375 -31.890625 C -11.320312 -35.023438 -8.960938 -37.046875 -7.015625 -37.953125 C -5.066406 -38.867188 -3.628906 -38.921875 -2.703125 -38.109375 C -2.421875 -37.859375 -2.296875 -37.460938 -2.328125 -36.921875 C -2.367188 -36.390625 -2.609375 -35.875 -3.046875 -35.375 C -3.484375 -34.882812 -4.3125 -34.007812 -5.53125 -32.75 C -6.75 -31.5 -7.835938 -30.351562 -8.796875 -29.3125 C -8.472656 -29.164062 -8.140625 -28.941406 -7.796875 -28.640625 C -7.453125 -28.335938 -6.882812 -27.613281 -6.09375 -26.46875 C -5.300781 -25.332031 -4.207031 -23.75 -2.8125 -21.71875 C -1.414062 -19.695312 0.3125 -17.289062 2.375 -14.5 C 4.445312 -11.707031 5.632812 -9.992188 5.9375 -9.359375 C 6.25 -8.734375 6.320312 -8.328125 6.15625 -8.140625 C 5.757812 -7.691406 4.847656 -7.492188 3.421875 -7.546875 C 1.992188 -7.609375 1.019531 -7.863281 0.5 -8.3125 C -0.0078125 -8.769531 -1.75 -11.09375 -4.71875 -15.28125 C -7.695312 -19.46875 -10.28125 -22.722656 -12.46875 -25.046875 Z M -12.46875 -25.046875 "/></g></g></g><g fill="#d9d9d9" fill-opacity="1"><g transform="translate(127.591026, 141.261585)"><g/></g></g><g fill="#d9d9d9" fill-opacity="1"><g transform="translate(138.774153, 132.107813)"><g><path d="M -7.09375 -29.15625 C -7.207031 -30.132812 -6.632812 -31.070312 -5.375 -31.96875 C -4.125 -32.863281 -2.113281 -33.976562 0.65625 -35.3125 C 3.4375 -36.644531 5.664062 -37.441406 7.34375 -37.703125 C 9.03125 -37.960938 10.070312 -37.675781 10.46875 -36.84375 C 10.664062 -36.457031 10.65625 -36.109375 10.4375 -35.796875 C 10.21875 -35.484375 10.019531 -35.226562 9.84375 -35.03125 C 9.664062 -34.832031 9.410156 -34.609375 9.078125 -34.359375 C 8.742188 -34.109375 8.4375 -33.875 8.15625 -33.65625 C 7.875 -33.4375 7.492188 -33.179688 7.015625 -32.890625 C 6.546875 -32.597656 6.140625 -32.34375 5.796875 -32.125 C 5.453125 -31.914062 5 -31.632812 4.4375 -31.28125 C 3.875 -30.925781 3.359375 -30.601562 2.890625 -30.3125 C 2.429688 -30.03125 1.234375 -29.21875 -0.703125 -27.875 L -0.6875 -27.84375 C -0.238281 -26.914062 0.550781 -24.265625 1.6875 -19.890625 C 2.019531 -20.015625 2.628906 -20.289062 3.515625 -20.71875 C 4.410156 -21.144531 5.546875 -21.773438 6.921875 -22.609375 C 8.304688 -23.453125 9.222656 -23.976562 9.671875 -24.1875 C 10.117188 -24.40625 10.550781 -24.472656 10.96875 -24.390625 C 11.394531 -24.316406 11.679688 -24.132812 11.828125 -23.84375 C 12.160156 -23.15625 12.039062 -22.34375 11.46875 -21.40625 C 10.90625 -20.46875 10.078125 -19.539062 8.984375 -18.625 C 6.816406 -16.820312 4.800781 -15.4375 2.9375 -14.46875 C 3.75 -10.820312 4.25 -8.59375 4.4375 -7.78125 C 4.625 -6.96875 4.785156 -6.179688 4.921875 -5.421875 C 5.210938 -3.941406 5.21875 -3.132812 4.9375 -3 C 4.394531 -2.738281 3.367188 -2.988281 1.859375 -3.75 C 0.347656 -4.519531 -0.546875 -5.203125 -0.828125 -5.796875 C -1.328125 -6.828125 -2.265625 -10.410156 -3.640625 -16.546875 C -5.023438 -22.679688 -6.023438 -26.472656 -6.640625 -27.921875 L -6.78125 -28.234375 C -6.945312 -28.578125 -7.050781 -28.882812 -7.09375 -29.15625 Z M -7.09375 -29.15625 "/></g></g></g><g fill="#d9d9d9" fill-opacity="1"><g transform="translate(157.401803, 122.804848)"><g><path d="M 2.1875 -33.890625 C 2.894531 -34.035156 3.851562 -33.753906 5.0625 -33.046875 C 6.269531 -32.347656 6.976562 -31.507812 7.1875 -30.53125 C 7.769531 -27.84375 7.519531 -22.335938 6.4375 -14.015625 C 6.082031 -11.085938 6.019531 -9.09375 6.25 -8.03125 C 6.28125 -7.894531 6.320312 -7.820312 6.375 -7.8125 C 6.4375 -7.800781 6.957031 -7.898438 7.9375 -8.109375 C 8.925781 -8.328125 10.25 -8.769531 11.90625 -9.4375 C 13.5625 -10.101562 14.894531 -10.691406 15.90625 -11.203125 C 16.925781 -11.710938 17.535156 -11.988281 17.734375 -12.03125 C 18.429688 -12.1875 18.878906 -11.816406 19.078125 -10.921875 C 19.460938 -9.160156 18.429688 -7.445312 15.984375 -5.78125 C 13.546875 -4.125 10.566406 -2.910156 7.046875 -2.140625 C 5.671875 -1.835938 4.304688 -2.078125 2.953125 -2.859375 C 1.597656 -3.640625 0.785156 -4.644531 0.515625 -5.875 C 0.253906 -7.101562 0.425781 -11.304688 1.03125 -18.484375 C 1.632812 -25.671875 1.71875 -30.257812 1.28125 -32.25 C 1.082031 -33.164062 1.382812 -33.710938 2.1875 -33.890625 Z M 2.1875 -33.890625 "/></g></g></g><g fill="#d9d9d9" fill-opacity="1"><g transform="translate(177.647007, 117.818374)"><g><path d="M 22.484375 -15.8125 C 23.628906 -15.769531 24.445312 -15.628906 24.9375 -15.390625 C 25.425781 -15.148438 25.660156 -14.742188 25.640625 -14.171875 C 25.617188 -13.398438 24.347656 -12.660156 21.828125 -11.953125 C 21.796875 -9.785156 21.742188 -7.707031 21.671875 -5.71875 C 21.597656 -3.726562 21.378906 -2.242188 21.015625 -1.265625 C 20.660156 -0.296875 20.140625 0.171875 19.453125 0.140625 C 18.765625 0.117188 18.242188 -0.242188 17.890625 -0.953125 C 17.535156 -1.671875 17.265625 -2.835938 17.078125 -4.453125 C 16.898438 -6.066406 16.734375 -8.191406 16.578125 -10.828125 C 13.628906 -10.285156 11.507812 -9.84375 10.21875 -9.5 C 7.738281 -3.394531 6.128906 -0.359375 5.390625 -0.390625 C 4.785156 -0.410156 4.003906 -0.835938 3.046875 -1.671875 C 2.085938 -2.515625 1.628906 -3.367188 1.671875 -4.234375 C 1.679688 -4.722656 2.296875 -6.21875 3.515625 -8.71875 C 3.046875 -9.0625 2.640625 -9.53125 2.296875 -10.125 C 1.960938 -10.71875 1.804688 -11.285156 1.828125 -11.828125 C 1.867188 -12.773438 3.320312 -13.625 6.1875 -14.375 C 6.4375 -14.9375 6.695312 -15.578125 6.96875 -16.296875 C 7.25 -17.015625 7.929688 -18.703125 9.015625 -21.359375 C 10.109375 -24.015625 10.972656 -26.234375 11.609375 -28.015625 C 11.890625 -28.859375 12.8125 -29.617188 14.375 -30.296875 C 15.9375 -30.984375 17.148438 -31.3125 18.015625 -31.28125 C 19.015625 -31.238281 19.851562 -29.816406 20.53125 -27.015625 C 21.207031 -24.210938 21.617188 -20.488281 21.765625 -15.84375 Z M 12.53125 -15.46875 C 13.40625 -15.539062 14.65625 -15.628906 16.28125 -15.734375 C 16.226562 -16.578125 16.144531 -18.003906 16.03125 -20.015625 C 15.925781 -22.023438 15.851562 -23.472656 15.8125 -24.359375 C 15.257812 -22.773438 14.164062 -19.8125 12.53125 -15.46875 Z M 12.53125 -15.46875 "/></g></g></g><g fill="#d9d9d9" fill-opacity="1"><g transform="translate(202.048003, 118.690314)"><g><path d="M 30.1875 -24.421875 C 30.957031 -24.191406 31.648438 -23.675781 32.265625 -22.875 C 32.878906 -22.082031 33.109375 -21.425781 32.953125 -20.90625 C 32.796875 -20.382812 32.519531 -19.835938 32.125 -19.265625 C 31.738281 -18.703125 31.175781 -18.015625 30.4375 -17.203125 C 29.707031 -16.390625 28.976562 -15.601562 28.25 -14.84375 C 27.53125 -14.082031 26.585938 -13.09375 25.421875 -11.875 C 24.253906 -10.65625 23.226562 -9.5625 22.34375 -8.59375 C 21.46875 -7.632812 20.460938 -6.484375 19.328125 -5.140625 C 18.203125 -3.804688 17.273438 -2.71875 16.546875 -1.875 C 15.816406 -1.03125 15.066406 -0.210938 14.296875 0.578125 C 12.785156 2.160156 11.578125 2.820312 10.671875 2.5625 C 10.265625 2.4375 9.785156 1.960938 9.234375 1.140625 C 8.679688 0.316406 8.375 -0.4375 8.3125 -1.125 C 8.144531 -3.46875 8.394531 -8.179688 9.0625 -15.265625 C 9.738281 -22.359375 10.28125 -26.585938 10.6875 -27.953125 C 11.09375 -29.328125 11.664062 -29.90625 12.40625 -29.6875 C 13.332031 -29.414062 14.171875 -28.738281 14.921875 -27.65625 C 15.679688 -26.570312 16.140625 -25.285156 16.296875 -23.796875 C 16.347656 -23.191406 16.210938 -21.96875 15.890625 -20.125 C 15.578125 -18.289062 15.175781 -16.019531 14.6875 -13.3125 C 14.195312 -10.601562 13.835938 -8.269531 13.609375 -6.3125 C 18.617188 -13.007812 22.414062 -17.765625 25 -20.578125 C 27.582031 -23.390625 29.3125 -24.671875 30.1875 -24.421875 Z M 30.1875 -24.421875 "/></g></g></g><g fill="#d9d9d9" fill-opacity="1"><g transform="translate(221.656173, 123.93762)"><g><path d="M 15.921875 0.1875 C 18.109375 -0.226562 20.300781 -1.085938 22.5 -2.390625 C 24.707031 -3.691406 26.335938 -5.226562 27.390625 -7 C 28.453125 -8.769531 29.039062 -10.265625 29.15625 -11.484375 C 29.28125 -12.710938 28.945312 -13.5625 28.15625 -14.03125 C 27.375 -14.5 25.929688 -14.398438 23.828125 -13.734375 C 21.722656 -13.078125 19.476562 -11.90625 17.09375 -10.21875 C 14.707031 -8.539062 12.894531 -6.65625 11.65625 -4.5625 C 11.03125 -3.507812 10.671875 -2.566406 10.578125 -1.734375 C 10.484375 -0.898438 10.660156 -0.347656 11.109375 -0.078125 C 12.128906 0.523438 13.734375 0.613281 15.921875 0.1875 Z M 8.46875 4.390625 C 6.65625 3.304688 5.566406 1.453125 5.203125 -1.171875 C 4.835938 -3.804688 5.179688 -6.007812 6.234375 -7.78125 C 7.578125 -10.050781 9.382812 -12.117188 11.65625 -13.984375 C 13.9375 -15.847656 16.234375 -17.257812 18.546875 -18.21875 C 20.867188 -19.1875 23.140625 -19.769531 25.359375 -19.96875 C 27.578125 -20.164062 29.335938 -19.878906 30.640625 -19.109375 C 33.035156 -17.679688 34.394531 -15.5 34.71875 -12.5625 C 35.039062 -9.625 34.445312 -6.890625 32.9375 -4.359375 C 31.425781 -1.828125 29.257812 0.351562 26.4375 2.1875 C 23.613281 4.03125 20.515625 5.21875 17.140625 5.75 C 13.773438 6.28125 10.882812 5.828125 8.46875 4.390625 Z M 8.46875 4.390625 "/></g></g></g><g fill="#d9d9d9" fill-opacity="1"><g transform="translate(242.321856, 135.860767)"><g><path d="M 18.5 15.984375 C 17.65625 16.804688 16.664062 16.632812 15.53125 15.46875 C 13.976562 13.863281 13.175781 11.375 13.125 8 C 13.070312 4.625 13.59375 1.691406 14.6875 -0.796875 C 13.375 -0.160156 12.484375 0.257812 12.015625 0.46875 C 11.554688 0.675781 10.828125 1.03125 9.828125 1.53125 C 8.828125 2.03125 8.078125 2.390625 7.578125 2.609375 C 7.078125 2.835938 6.539062 3.070312 5.96875 3.3125 C 4.894531 3.757812 4.21875 3.835938 3.9375 3.546875 C 3.476562 3.078125 3.316406 2.125 3.453125 0.6875 C 3.597656 -0.75 3.914062 -1.707031 4.40625 -2.1875 C 4.894531 -2.664062 6.035156 -3.316406 7.828125 -4.140625 C 13.265625 -6.722656 17.769531 -9.550781 21.34375 -12.625 C 21.269531 -13.300781 21.359375 -14.066406 21.609375 -14.921875 C 21.867188 -15.773438 22.179688 -16.378906 22.546875 -16.734375 C 23.171875 -17.335938 24.59375 -17.171875 26.8125 -16.234375 C 29.03125 -15.296875 31.148438 -13.785156 33.171875 -11.703125 C 35.203125 -9.628906 36.40625 -7.414062 36.78125 -5.0625 C 37.15625 -2.707031 36.554688 -0.765625 34.984375 0.765625 C 33.804688 1.898438 32.34375 2.648438 30.59375 3.015625 C 28.851562 3.378906 27.285156 3.453125 25.890625 3.234375 C 24.492188 3.015625 23.21875 2.800781 22.0625 2.59375 C 20.90625 2.382812 20.253906 2.347656 20.109375 2.484375 C 19.617188 2.960938 19.3125 3.582031 19.1875 4.34375 C 19.0625 5.101562 18.992188 6.0625 18.984375 7.21875 C 18.984375 8.382812 18.988281 9.378906 19 10.203125 C 19.019531 11.023438 19.035156 11.703125 19.046875 12.234375 C 19.054688 12.773438 19.039062 13.316406 19 13.859375 C 19.007812 14.941406 18.84375 15.648438 18.5 15.984375 Z M 30.0625 -3.671875 C 30.925781 -4.503906 30.535156 -5.765625 28.890625 -7.453125 C 28.117188 -8.242188 26.960938 -8.972656 25.421875 -9.640625 C 25.148438 -8.378906 24.6875 -7.429688 24.03125 -6.796875 C 22.832031 -5.628906 21.359375 -4.507812 19.609375 -3.4375 C 19.992188 -3.375 20.695312 -3.238281 21.71875 -3.03125 C 22.738281 -2.832031 23.539062 -2.6875 24.125 -2.59375 C 24.707031 -2.5 25.410156 -2.4375 26.234375 -2.40625 C 27.859375 -2.34375 29.132812 -2.765625 30.0625 -3.671875 Z M 30.0625 -3.671875 "/></g></g></g><g fill="#d9d9d9" fill-opacity="1"><g transform="translate(258.646716, 152.354413)"><g><path d="M 18.90625 13.828125 C 16.789062 15.046875 14.394531 15.085938 11.71875 13.953125 C 9.050781 12.816406 6.972656 10.957031 5.484375 8.375 C 4.003906 5.800781 3.445312 3.351562 3.8125 1.03125 C 4.175781 -1.28125 5.039062 -2.828125 6.40625 -3.609375 C 7.769531 -4.398438 8.675781 -4.40625 9.125 -3.625 C 9.46875 -3.03125 9.523438 -2.238281 9.296875 -1.25 C 9.066406 -0.257812 8.882812 0.804688 8.75 1.953125 C 8.625 3.097656 8.851562 4.179688 9.4375 5.203125 C 10.03125 6.222656 11.117188 7.132812 12.703125 7.9375 C 14.296875 8.738281 15.378906 8.972656 15.953125 8.640625 C 16.523438 8.304688 17.078125 7.050781 17.609375 4.875 C 18.140625 2.707031 18.710938 0.515625 19.328125 -1.703125 C 19.941406 -3.929688 20.640625 -5.269531 21.421875 -5.71875 C 22.203125 -6.175781 23.128906 -6.523438 24.203125 -6.765625 C 25.285156 -7.003906 26.125 -7.019531 26.71875 -6.8125 C 28.820312 -6.226562 30.957031 -5.148438 33.125 -3.578125 C 35.300781 -2.003906 36.851562 -0.410156 37.78125 1.203125 C 38.320312 2.140625 38.367188 3.148438 37.921875 4.234375 C 37.484375 5.316406 36.828125 6.109375 35.953125 6.609375 C 35.609375 6.804688 35.171875 6.6875 34.640625 6.25 C 34.109375 5.820312 33.425781 5.140625 32.59375 4.203125 C 31.757812 3.273438 30.816406 2.394531 29.765625 1.5625 C 27.367188 -0.425781 25.847656 -1.234375 25.203125 -0.859375 C 24.898438 -0.691406 24.609375 0.046875 24.328125 1.359375 C 24.054688 2.679688 23.785156 4.101562 23.515625 5.625 C 23.253906 7.15625 22.722656 8.726562 21.921875 10.34375 C 21.117188 11.96875 20.113281 13.128906 18.90625 13.828125 Z M 18.90625 13.828125 "/></g></g></g><g fill="#d9d9d9" fill-opacity="1"><g transform="translate(269.289062, 171.063735)"><g/></g></g><g clip-path="url(#8618c14d0f)"><g clip-path="url(#de8be46381)"><path fill="#ffffff" d="M 92.164062 207.429688 L 101.671875 207.429688 L 101.671875 216.9375 L 92.164062 216.9375 Z M 92.164062 207.429688 " fill-opacity="1" fill-rule="nonzero"/></g></g><g fill="#d9d9d9" fill-opacity="1"><g transform="translate(141.720286, 272.085698)"><g><path d="M 6.03125 -1.34375 C 6.625 -1.34375 7.175781 -1.484375 7.6875 -1.765625 C 8.195312 -2.054688 8.628906 -2.441406 8.984375 -2.921875 L 10.109375 -1.84375 C 9.609375 -1.25 9.003906 -0.765625 8.296875 -0.390625 C 7.597656 -0.0234375 6.84375 0.15625 6.03125 0.15625 C 5.289062 0.15625 4.585938 0.0078125 3.921875 -0.28125 C 3.265625 -0.582031 2.691406 -0.988281 2.203125 -1.5 C 1.722656 -2.007812 1.34375 -2.609375 1.0625 -3.296875 C 0.78125 -3.984375 0.640625 -4.707031 0.640625 -5.46875 C 0.640625 -6.238281 0.78125 -6.960938 1.0625 -7.640625 C 1.34375 -8.328125 1.722656 -8.925781 2.203125 -9.4375 C 2.691406 -9.945312 3.265625 -10.347656 3.921875 -10.640625 C 4.585938 -10.941406 5.289062 -11.09375 6.03125 -11.09375 C 6.71875 -11.09375 7.367188 -10.957031 7.984375 -10.6875 C 8.597656 -10.414062 9.144531 -10.054688 9.625 -9.609375 L 8.671875 -8.390625 C 8.328125 -8.753906 7.925781 -9.050781 7.46875 -9.28125 C 7.019531 -9.507812 6.539062 -9.625 6.03125 -9.625 C 5.5 -9.625 5.003906 -9.515625 4.546875 -9.296875 C 4.085938 -9.078125 3.6875 -8.773438 3.34375 -8.390625 C 3.007812 -8.003906 2.738281 -7.5625 2.53125 -7.0625 C 2.332031 -6.570312 2.234375 -6.039062 2.234375 -5.46875 C 2.234375 -4.90625 2.332031 -4.375 2.53125 -3.875 C 2.738281 -3.375 3.007812 -2.9375 3.34375 -2.5625 C 3.6875 -2.1875 4.085938 -1.890625 4.546875 -1.671875 C 5.003906 -1.453125 5.5 -1.34375 6.03125 -1.34375 Z M 6.03125 -1.34375 "/></g></g></g><g fill="#d9d9d9" fill-opacity="1"><g transform="translate(158.61644, 272.085698)"><g><path d="M 5.953125 -11.109375 C 6.691406 -11.109375 7.390625 -10.957031 8.046875 -10.65625 C 8.710938 -10.363281 9.289062 -9.960938 9.78125 -9.453125 C 10.269531 -8.941406 10.65625 -8.34375 10.9375 -7.65625 C 11.226562 -6.96875 11.375 -6.242188 11.375 -5.484375 C 11.375 -4.710938 11.226562 -3.984375 10.9375 -3.296875 C 10.65625 -2.617188 10.265625 -2.023438 9.765625 -1.515625 C 9.273438 -1.003906 8.695312 -0.597656 8.03125 -0.296875 C 7.375 -0.00390625 6.675781 0.140625 5.9375 0.140625 C 5.195312 0.140625 4.492188 -0.00390625 3.828125 -0.296875 C 3.171875 -0.597656 2.597656 -1.003906 2.109375 -1.515625 C 1.617188 -2.023438 1.234375 -2.617188 0.953125 -3.296875 C 0.671875 -3.984375 0.53125 -4.710938 0.53125 -5.484375 C 0.53125 -6.242188 0.671875 -6.96875 0.953125 -7.65625 C 1.234375 -8.34375 1.617188 -8.941406 2.109375 -9.453125 C 2.609375 -9.960938 3.1875 -10.363281 3.84375 -10.65625 C 4.507812 -10.957031 5.210938 -11.109375 5.953125 -11.109375 Z M 5.953125 -1.390625 C 6.472656 -1.390625 6.960938 -1.492188 7.421875 -1.703125 C 7.878906 -1.921875 8.273438 -2.210938 8.609375 -2.578125 C 8.953125 -2.953125 9.222656 -3.390625 9.421875 -3.890625 C 9.617188 -4.390625 9.71875 -4.921875 9.71875 -5.484375 C 9.71875 -6.046875 9.617188 -6.570312 9.421875 -7.0625 C 9.222656 -7.5625 8.953125 -8 8.609375 -8.375 C 8.273438 -8.75 7.878906 -9.039062 7.421875 -9.25 C 6.960938 -9.457031 6.472656 -9.5625 5.953125 -9.5625 C 5.421875 -9.5625 4.925781 -9.457031 4.46875 -9.25 C 4.007812 -9.039062 3.609375 -8.75 3.265625 -8.375 C 2.929688 -8 2.660156 -7.5625 2.453125 -7.0625 C 2.253906 -6.570312 2.15625 -6.046875 2.15625 -5.484375 C 2.15625 -4.921875 2.253906 -4.390625 2.453125 -3.890625 C 2.660156 -3.390625 2.929688 -2.953125 3.265625 -2.578125 C 3.609375 -2.210938 4.007812 -1.921875 4.46875 -1.703125 C 4.925781 -1.492188 5.421875 -1.390625 5.953125 -1.390625 Z M 5.953125 -1.390625 "/></g></g></g><g fill="#d9d9d9" fill-opacity="1"><g transform="translate(176.764576, 272.085698)"><g><path d="M 10.203125 -10.953125 L 11.828125 -10.953125 L 11.828125 0 L 10.21875 0 L 10.21875 -8.40625 L 7.015625 -4 L 5.765625 -4 L 2.546875 -8.40625 L 2.546875 0 L 0.921875 0 L 0.921875 -10.953125 L 2.546875 -10.953125 L 6.375 -5.6875 Z M 10.203125 -10.953125 "/></g></g></g><g fill="#d9d9d9" fill-opacity="1"><g transform="translate(195.809187, 272.085698)"><g><path d="M 3.828125 -9.625 L 3.828125 -1.328125 L 4.640625 -1.328125 L 4.640625 0 L 1.40625 0 L 1.40625 -1.328125 L 2.21875 -1.328125 L 2.21875 -9.625 L 1.40625 -9.625 L 1.40625 -10.953125 L 4.640625 -10.953125 L 4.640625 -9.625 Z M 3.828125 -9.625 "/></g></g></g><g fill="#d9d9d9" fill-opacity="1"><g transform="translate(208.176584, 272.085698)"><g><path d="M 0.921875 0 L 0.921875 -10.953125 L 4.828125 -10.953125 C 5.617188 -10.953125 6.316406 -10.804688 6.921875 -10.515625 C 7.523438 -10.234375 8.03125 -9.84375 8.4375 -9.34375 C 8.851562 -8.851562 9.164062 -8.269531 9.375 -7.59375 C 9.582031 -6.925781 9.6875 -6.21875 9.6875 -5.46875 C 9.6875 -4.707031 9.578125 -3.992188 9.359375 -3.328125 C 9.140625 -2.660156 8.832031 -2.078125 8.4375 -1.578125 C 8.039062 -1.085938 7.578125 -0.703125 7.046875 -0.421875 C 6.515625 -0.140625 5.9375 0 5.3125 0 Z M 4.765625 -1.5 C 5.347656 -1.5 5.84375 -1.601562 6.25 -1.8125 C 6.664062 -2.03125 7.007812 -2.320312 7.28125 -2.6875 C 7.550781 -3.050781 7.742188 -3.472656 7.859375 -3.953125 C 7.984375 -4.441406 8.046875 -4.945312 8.046875 -5.46875 C 8.046875 -6 7.984375 -6.503906 7.859375 -6.984375 C 7.742188 -7.472656 7.550781 -7.90625 7.28125 -8.28125 C 7.019531 -8.65625 6.679688 -8.953125 6.265625 -9.171875 C 5.847656 -9.390625 5.347656 -9.5 4.765625 -9.5 L 2.546875 -9.5 L 2.546875 -1.5 Z M 4.765625 -1.5 "/></g></g></g><g fill="#d9d9d9" fill-opacity="1"><g transform="translate(224.949091, 272.085698)"><g><path d="M 1.9375 0 L 0.171875 0 L 4.734375 -10.953125 L 6.5 -10.953125 L 11.0625 0 L 9.3125 0 L 7.875 -3.4375 L 3.359375 -3.4375 Z M 3.96875 -4.921875 L 7.265625 -4.921875 L 5.625 -8.875 Z M 3.96875 -4.921875 "/></g></g></g><g fill="#d9d9d9" fill-opacity="1"><g transform="translate(127.168113, 287.871106)"><g><path d="M 8.171875 -3.078125 C 8.171875 -2.609375 8.078125 -2.175781 7.890625 -1.78125 C 7.710938 -1.382812 7.441406 -1.035156 7.078125 -0.734375 C 6.367188 -0.140625 5.457031 0.15625 4.34375 0.15625 C 3.476562 0.15625 2.691406 -0.0195312 1.984375 -0.375 C 1.285156 -0.726562 0.773438 -1.207031 0.453125 -1.8125 L 1.828125 -2.515625 C 2.023438 -2.148438 2.347656 -1.863281 2.796875 -1.65625 C 3.253906 -1.457031 3.769531 -1.359375 4.34375 -1.359375 C 5.832031 -1.359375 6.578125 -1.929688 6.578125 -3.078125 C 6.578125 -3.296875 6.535156 -3.476562 6.453125 -3.625 C 6.378906 -3.78125 6.269531 -3.925781 6.125 -4.0625 C 5.75 -4.375 5.082031 -4.65625 4.125 -4.90625 C 3.550781 -5.039062 3.0625 -5.195312 2.65625 -5.375 C 2.257812 -5.550781 1.925781 -5.757812 1.65625 -6 C 1.007812 -6.519531 0.6875 -7.210938 0.6875 -8.078125 C 0.6875 -8.515625 0.769531 -8.921875 0.9375 -9.296875 C 1.101562 -9.671875 1.34375 -10 1.65625 -10.28125 C 1.96875 -10.550781 2.335938 -10.753906 2.765625 -10.890625 C 3.203125 -11.035156 3.675781 -11.109375 4.1875 -11.109375 C 4.9375 -11.109375 5.628906 -10.960938 6.265625 -10.671875 C 6.898438 -10.390625 7.382812 -9.984375 7.71875 -9.453125 L 6.453125 -8.6875 C 6.160156 -9.039062 5.816406 -9.289062 5.421875 -9.4375 C 5.035156 -9.59375 4.625 -9.671875 4.1875 -9.671875 C 3.875 -9.671875 3.585938 -9.617188 3.328125 -9.515625 C 3.078125 -9.410156 2.863281 -9.285156 2.6875 -9.140625 C 2.539062 -9.023438 2.429688 -8.875 2.359375 -8.6875 C 2.296875 -8.507812 2.265625 -8.316406 2.265625 -8.109375 C 2.265625 -7.972656 2.285156 -7.835938 2.328125 -7.703125 C 2.367188 -7.566406 2.46875 -7.421875 2.625 -7.265625 C 2.78125 -7.117188 3.003906 -6.972656 3.296875 -6.828125 C 3.597656 -6.691406 4.007812 -6.554688 4.53125 -6.421875 C 5.144531 -6.273438 5.660156 -6.109375 6.078125 -5.921875 C 6.503906 -5.742188 6.863281 -5.53125 7.15625 -5.28125 C 7.832031 -4.726562 8.171875 -3.992188 8.171875 -3.078125 Z M 8.171875 -3.078125 "/></g></g></g><g fill="#d9d9d9" fill-opacity="1"><g transform="translate(142.425875, 287.871106)"><g><path d="M 1.9375 0 L 0.171875 0 L 4.734375 -10.953125 L 6.5 -10.953125 L 11.0625 0 L 9.3125 0 L 7.875 -3.4375 L 3.359375 -3.4375 Z M 3.96875 -4.921875 L 7.265625 -4.921875 L 5.625 -8.875 Z M 3.96875 -4.921875 "/></g></g></g><g fill="#d9d9d9" fill-opacity="1"><g transform="translate(160.033036, 287.871106)"><g><path d="M 8.921875 -3.875 C 8.921875 -3.320312 8.8125 -2.800781 8.59375 -2.3125 C 8.382812 -1.820312 8.097656 -1.394531 7.734375 -1.03125 C 7.378906 -0.664062 6.957031 -0.375 6.46875 -0.15625 C 5.988281 0.0507812 5.472656 0.15625 4.921875 0.15625 C 4.359375 0.15625 3.832031 0.0507812 3.34375 -0.15625 C 2.863281 -0.375 2.441406 -0.664062 2.078125 -1.03125 C 1.722656 -1.394531 1.4375 -1.820312 1.21875 -2.3125 C 1.007812 -2.800781 0.90625 -3.320312 0.90625 -3.875 L 0.90625 -10.953125 L 2.515625 -10.953125 L 2.515625 -3.875 C 2.515625 -3.550781 2.578125 -3.238281 2.703125 -2.9375 C 2.828125 -2.632812 2.992188 -2.367188 3.203125 -2.140625 C 3.421875 -1.910156 3.675781 -1.726562 3.96875 -1.59375 C 4.269531 -1.457031 4.585938 -1.390625 4.921875 -1.390625 C 5.242188 -1.390625 5.550781 -1.457031 5.84375 -1.59375 C 6.132812 -1.726562 6.382812 -1.910156 6.59375 -2.140625 C 6.8125 -2.367188 6.984375 -2.632812 7.109375 -2.9375 C 7.234375 -3.238281 7.296875 -3.550781 7.296875 -3.875 L 7.296875 -10.953125 L 8.921875 -10.953125 Z M 8.921875 -3.875 "/></g></g></g><g fill="#d9d9d9" fill-opacity="1"><g transform="translate(176.12545, 287.871106)"><g><path d="M 0.921875 0 L 0.921875 -10.953125 L 4.828125 -10.953125 C 5.617188 -10.953125 6.316406 -10.804688 6.921875 -10.515625 C 7.523438 -10.234375 8.03125 -9.84375 8.4375 -9.34375 C 8.851562 -8.851562 9.164062 -8.269531 9.375 -7.59375 C 9.582031 -6.925781 9.6875 -6.21875 9.6875 -5.46875 C 9.6875 -4.707031 9.578125 -3.992188 9.359375 -3.328125 C 9.140625 -2.660156 8.832031 -2.078125 8.4375 -1.578125 C 8.039062 -1.085938 7.578125 -0.703125 7.046875 -0.421875 C 6.515625 -0.140625 5.9375 0 5.3125 0 Z M 4.765625 -1.5 C 5.347656 -1.5 5.84375 -1.601562 6.25 -1.8125 C 6.664062 -2.03125 7.007812 -2.320312 7.28125 -2.6875 C 7.550781 -3.050781 7.742188 -3.472656 7.859375 -3.953125 C 7.984375 -4.441406 8.046875 -4.945312 8.046875 -5.46875 C 8.046875 -6 7.984375 -6.503906 7.859375 -6.984375 C 7.742188 -7.472656 7.550781 -7.90625 7.28125 -8.28125 C 7.019531 -8.65625 6.679688 -8.953125 6.265625 -9.171875 C 5.847656 -9.390625 5.347656 -9.5 4.765625 -9.5 L 2.546875 -9.5 L 2.546875 -1.5 Z M 4.765625 -1.5 "/></g></g></g><g fill="#d9d9d9" fill-opacity="1"><g transform="translate(192.897958, 287.871106)"><g><path d="M 1.9375 0 L 0.171875 0 L 4.734375 -10.953125 L 6.5 -10.953125 L 11.0625 0 L 9.3125 0 L 7.875 -3.4375 L 3.359375 -3.4375 Z M 3.96875 -4.921875 L 7.265625 -4.921875 L 5.625 -8.875 Z M 7.15625 -14.4375 L 6.296875 -11.6875 L 5.078125 -11.6875 L 5.4375 -14.4375 Z M 7.15625 -14.4375 "/></g></g></g><g fill="#d9d9d9" fill-opacity="1"><g transform="translate(210.505117, 287.871106)"><g><path d="M 4.765625 0 L 0.21875 -10.953125 L 1.96875 -10.953125 L 5.65625 -2.078125 L 9.34375 -10.953125 L 11.09375 -10.953125 L 6.546875 0 Z M 4.765625 0 "/></g></g></g><g fill="#d9d9d9" fill-opacity="1"><g transform="translate(228.112281, 287.871106)"><g><path d="M 7.5625 -10.953125 L 7.5625 -9.5 L 2.46875 -9.5 L 2.46875 -6.515625 L 7 -6.515625 L 7 -5.015625 L 2.46875 -5.015625 L 2.46875 -1.5 L 7.5625 -1.5 L 7.5625 0 L 0.859375 0 L 0.859375 -10.953125 Z M 7.5625 -10.953125 "/></g></g></g><g fill="#d9d9d9" fill-opacity="1"><g transform="translate(242.890889, 287.871106)"><g><path d="M 0.90625 0 L 0.90625 -10.953125 L 2.53125 -10.953125 L 2.53125 -1.5 L 7.609375 -1.5 L 7.609375 0 Z M 0.90625 0 "/></g></g></g><g clip-path="url(#97bd966629)"><g clip-path="url(#d4f47521da)"><path fill="#ffffff" d="M 273.921875 207.429688 L 283.425781 207.429688 L 283.425781 216.9375 L 273.921875 216.9375 Z M 273.921875 207.429688 " fill-opacity="1" fill-rule="nonzero"/></g></g><g clip-path="url(#24beb3bd18)"><path fill="#ffffff" d="M 224.882812 191.769531 C 224.882812 176.183594 214.296875 163.503906 201.28125 163.503906 C 197.304688 163.503906 193.421875 164.695312 189.964844 166.96875 C 190.339844 167.359375 190.703125 167.761719 191.058594 168.167969 C 194.660156 172.300781 197.335938 177.273438 198.691406 182.589844 C 200.863281 191.09375 199.398438 199.796875 195.921875 207.742188 C 195.210938 209.371094 192.832031 207.957031 193.539062 206.34375 C 195.601562 201.628906 196.929688 196.5625 196.984375 191.390625 C 197.074219 183.164062 193.71875 174.042969 187.488281 168.386719 C 187.332031 168.246094 186.359375 167.480469 186.253906 167.402344 C 182.632812 164.851562 178.519531 163.503906 174.296875 163.503906 C 161.28125 163.503906 150.695312 176.183594 150.695312 191.769531 C 150.695312 207.6875 168.769531 230.835938 186.566406 231.820312 C 186.945312 231.839844 188.925781 231.828125 189.460938 231.792969 C 197.769531 231.167969 206.710938 225.777344 213.992188 217.003906 C 220.710938 208.914062 224.882812 199.242188 224.882812 191.769531 Z M 177.707031 161.003906 C 180.890625 161.488281 183.960938 162.648438 186.78125 164.4375 C 186.992188 162.359375 187.066406 159.011719 186.070312 155.429688 C 184.03125 148.078125 178.578125 143.046875 169.851562 140.460938 C 169.238281 144.144531 168.539062 154.355469 177.707031 161.003906 Z M 227.644531 191.769531 C 227.644531 199.859375 223.226562 210.199219 216.117188 218.765625 C 208.363281 228.109375 198.71875 233.859375 189.667969 234.539062 C 189.242188 234.574219 188.230469 234.589844 187.429688 234.589844 C 186.976562 234.589844 186.585938 234.585938 186.414062 234.574219 C 177.277344 234.066406 167.519531 228.382812 159.632812 218.976562 C 152.417969 210.363281 147.933594 199.9375 147.933594 191.769531 C 147.933594 175.089844 159.175781 161.445312 173.210938 160.773438 C 169.707031 157.222656 167.5625 152.679688 166.96875 147.417969 C 166.402344 142.410156 167.421875 138.542969 167.464844 138.382812 L 167.820312 137.066406 L 169.140625 137.40625 C 182.363281 140.796875 187.109375 148.742188 188.761719 154.808594 C 189.292969 156.753906 189.542969 158.621094 189.632812 160.289062 C 195.617188 150.101562 204.9375 140.578125 217.269531 139.914062 C 219.050781 139.816406 219.035156 142.578125 217.269531 142.675781 C 213.335938 142.886719 209.613281 144.167969 206.261719 146.214844 C 200.980469 149.445312 196.78125 154.28125 193.425781 159.425781 C 192.652344 160.621094 191.917969 161.839844 191.226562 163.085938 C 194.394531 161.546875 197.800781 160.742188 201.28125 160.742188 C 215.816406 160.742188 227.644531 174.660156 227.644531 191.769531 Z M 217.765625 192.21875 C 217.761719 191.167969 217.695312 190.121094 217.566406 189.074219 C 217.480469 188.335938 216.996094 187.695312 216.1875 187.695312 C 215.511719 187.695312 214.714844 188.332031 214.808594 189.074219 C 214.929688 190.121094 214.996094 191.167969 215.003906 192.21875 C 215.011719 193.996094 217.773438 194 217.765625 192.21875 Z M 215.5 181.644531 C 216.246094 183.25 213.863281 184.652344 213.113281 183.042969 C 210.425781 177.261719 205.332031 172.738281 198.71875 172.636719 C 196.9375 172.609375 196.9375 169.84375 198.71875 169.871094 C 206.257812 169.992188 212.402344 174.980469 215.5 181.644531 " fill-opacity="1" fill-rule="nonzero"/></g></svg>